<svg width="32" height="32" viewBox="0 0 32 32" fill="none" xmlns="http://www.w3.org/2000/svg">
<path fill-rule="evenodd" clip-rule="evenodd" d="M12.276 30.3298C12.276 30.5298 12.456 30.6912 12.679 30.6912H18.424C18.647 30.6912 18.827 30.5298 18.827 30.3298V16.2326H22.992C23.202 16.2326 23.376 16.0892 23.394 15.9009L23.794 11.6546C23.7987 11.6048 23.7919 11.5546 23.7739 11.5073C23.7558 11.4601 23.7271 11.4166 23.6894 11.3798C23.6517 11.343 23.6059 11.3136 23.5549 11.2934C23.5039 11.2733 23.4488 11.2628 23.393 11.2628H18.827V8.24929C18.827 7.54277 19.465 6.96985 20.253 6.96985H23.463C23.686 6.96985 23.866 6.80846 23.866 6.60852V2.36133C23.866 2.2655 23.8236 2.17359 23.748 2.10583C23.6724 2.03807 23.5699 2 23.463 2H18.04C16.5116 2 15.0457 2.54439 13.965 3.51341C12.8842 4.48243 12.277 5.7967 12.277 7.1671V11.2628H9.403C9.29629 11.2628 9.19394 11.3007 9.11839 11.3683C9.04284 11.4358 9.00026 11.5275 9 11.6232V15.8713C9 16.0712 9.18 16.2326 9.403 16.2326H12.276V30.3298Z" fill="black"/>
</svg>
