<svg width="32" height="24" viewBox="0 0 32 24" fill="none" xmlns="http://www.w3.org/2000/svg">
<path fill-rule="evenodd" clip-rule="evenodd" d="M31.8799 2.83391C30.8629 3.24634 29.7439 3.49649 28.6479 3.66147C29.1679 3.58257 29.9359 2.73797 30.2429 2.39547C30.7109 1.87455 31.0999 1.2792 31.3189 0.638136C31.3469 0.587926 31.3689 0.525164 31.3129 0.486611C31.2429 0.462402 31.1969 0.474955 31.1409 0.500059C29.9275 1.08101 28.6378 1.52378 27.3019 1.81806C27.2557 1.83098 27.2062 1.83194 27.1594 1.82084C27.1125 1.80974 27.0701 1.78702 27.0369 1.7553C26.9343 1.64488 26.8223 1.54176 26.7019 1.44687C26.1474 1.01857 25.5193 0.673411 24.8419 0.424745C23.9377 0.0963766 22.9624 -0.0446107 21.9889 0.0123097C21.0433 0.0699524 20.1214 0.303545 19.2819 0.698208C18.4411 1.09232 17.6986 1.63597 17.0999 2.29595C16.4786 2.9812 16.0334 3.78081 15.7959 4.63786C15.5719 5.46273 15.5899 6.27685 15.7259 7.10979C15.7479 7.24786 15.7339 7.26669 15.5949 7.24786C10.3189 6.54583 5.94892 4.85305 2.39992 1.22899C2.24592 1.07119 2.16192 1.07119 2.03592 1.24065C0.482914 3.32793 1.23592 6.68032 3.17592 8.32826C3.43492 8.54793 3.69992 8.7676 3.98692 8.96754C3.88292 8.98727 2.59192 8.86174 1.44092 8.32826C1.28692 8.24129 1.20992 8.2915 1.19592 8.44751C1.18592 8.67414 1.19998 8.9011 1.23792 9.12534C1.53592 11.2413 3.16992 13.1977 5.40792 13.9616C5.67392 14.0611 5.96692 14.1499 6.25392 14.1929C5.74392 14.2933 5.21892 14.3651 3.75692 14.2629C3.57492 14.2306 3.50492 14.3122 3.57492 14.4691C4.67292 17.1544 7.04492 17.9533 8.82092 18.4078C9.05892 18.4455 9.29692 18.4455 9.53492 18.4957C9.52092 18.5145 9.50692 18.5145 9.49292 18.5334C8.90292 19.3385 6.86092 19.9383 5.90992 20.2369C4.17992 20.7784 2.29692 21.0223 0.467914 20.8609C0.175914 20.8224 0.113914 20.8251 0.0349141 20.8609C-0.045086 20.9058 0.0249141 20.9685 0.118914 21.0358C0.488915 21.2554 0.866915 21.45 1.25192 21.6383C2.40786 22.1908 3.62779 22.6283 4.88992 22.9428C11.4269 24.5612 18.7899 23.3723 23.6999 18.9996C27.5529 15.5656 28.9039 10.8307 28.9039 6.08856C28.9039 5.90386 29.1479 5.80165 29.2939 5.70302C30.2969 5.02788 31.0939 4.21915 31.8419 3.31628C32.0099 3.11365 31.9999 2.93343 31.9999 2.85901V2.83391C31.9999 2.75859 32.0099 2.78101 31.8799 2.83391Z" fill="black"/>
</svg>
